<svg width="24" height="25" viewBox="0 0 24 25" fill="none" xmlns="http://www.w3.org/2000/svg">
<path d="M2.42499 24.875C2.19046 24.8788 1.95729 24.8387 1.73749 24.7568L12.8117 13.6784L16.4775 17.3483L3.75186 24.4983C3.34876 24.7345 2.8921 24.8642 2.42499 24.875ZM0.824488 23.9606C0.59937 23.5529 0.487337 23.0924 0.499988 22.6269V2.40751C0.498129 2.10058 0.544529 1.79527 0.637488 1.50276L11.9579 12.8259L0.820363 23.9634L0.824488 23.9606ZM17.5706 16.7309L13.6642 12.8273L17.9721 8.52076L21.7987 10.6699C22.5333 10.9986 23.0248 11.7078 23.0747 12.511C23.025 13.315 22.5329 14.0249 21.7974 14.3535L17.5706 16.7309ZM12.8117 11.9693L1.34424 0.503132C1.65909 0.270313 2.04028 0.144536 2.43186 0.144257C2.89433 0.160678 3.34551 0.291543 3.74499 0.525132L16.8776 7.90613L12.8131 11.9693H12.8117Z" fill="black"/>
</svg>
