<svg width="246" height="41" viewBox="0 0 246 41" fill="none" xmlns="http://www.w3.org/2000/svg">
<path d="M21.8818 4.46777C21.8818 5.00098 21 6.31348 19.2363 8.40527H18.8672C18.5938 8.2959 18.4229 7.89258 18.3545 7.19531C18.2041 5.78711 17.7188 4.63867 16.8984 3.75C16.0781 2.84766 15.0938 2.39648 13.9453 2.39648C12.8652 2.39648 11.9355 2.79297 11.1562 3.58594C10.377 4.36523 9.9873 5.30176 9.9873 6.39551C9.9873 7.18848 10.2334 8.04297 10.7256 8.95898C11.2178 9.86133 12.4961 11.2969 14.5605 13.2656C16.6387 15.2344 17.9717 16.8066 18.5596 17.9824C19.1475 19.1445 19.4414 20.252 19.4414 21.3047C19.4414 23.7383 18.3818 25.8848 16.2627 27.7441C14.1572 29.5898 11.6895 30.5127 8.85938 30.5127C6.52148 30.5127 4.59375 29.9727 3.07617 28.8926C1.55859 27.7988 0.799805 26.9102 0.799805 26.2266C0.799805 25.8438 1.2168 24.9551 2.05078 23.5605C2.88477 22.166 3.36328 21.4688 3.48633 21.4688C3.92383 21.4688 4.23145 21.5986 4.40918 21.8584C4.60059 22.1045 4.73047 22.5693 4.79883 23.2529C5.00391 25.3857 5.5166 26.8555 6.33691 27.6621C7.1709 28.4688 8.25098 28.8721 9.57715 28.8721C11.0264 28.8721 12.291 28.373 13.3711 27.375C14.4512 26.3633 14.9912 25.1943 14.9912 23.8682C14.9912 23.1846 14.7793 22.46 14.3555 21.6943C13.9453 20.915 12.7627 19.6025 10.8076 17.7568C8.86621 15.8975 7.59473 14.3252 6.99316 13.04C6.3916 11.7549 6.09082 10.5039 6.09082 9.28711C6.09082 7.16797 6.89062 5.21973 8.49023 3.44238C10.0898 1.66504 12.2158 0.776367 14.8682 0.776367C16.8779 0.776367 18.5459 1.24121 19.8721 2.1709C21.2119 3.08691 21.8818 3.85254 21.8818 4.46777ZM39.8065 25.4678C39.1092 26.083 38.4325 26.5205 37.7762 26.7803C37.12 27.0264 36.6004 27.1494 36.2176 27.1494C35.2332 27.1494 34.2557 26.7666 33.285 26.001C31.3162 28.9814 29.0604 30.4717 26.5174 30.4717C24.9315 30.4717 23.6463 29.877 22.662 28.6875C21.6776 27.498 21.1854 25.9189 21.1854 23.9502C21.1854 20.833 22.2928 18.1602 24.5077 15.9316C26.7225 13.6895 29.368 12.5684 32.4442 12.5684C33.6063 12.5684 34.4539 12.6982 34.9871 12.958C35.534 13.2041 35.869 13.498 35.992 13.8398C36.1151 14.1816 36.1766 14.6123 36.1766 15.1318C36.1766 17.6885 35.4793 20.8262 34.0848 24.5449C34.7821 25.1875 35.5135 25.5088 36.2791 25.5088C37.1952 25.5088 38.3709 24.709 39.8065 23.1094V25.4678ZM33.0389 14.0039C32.8338 13.9219 32.5399 13.8809 32.1571 13.8809C30.3797 13.8809 28.9852 14.8105 27.9735 16.6699C26.9754 18.5293 26.4764 20.7031 26.4764 23.1914C26.4764 24.5723 26.6952 25.6455 27.1327 26.4111C27.5702 27.1768 28.1786 27.5596 28.9579 27.5596C29.9286 27.5596 30.9813 26.6641 32.1161 24.873C30.8309 23.2598 30.1883 21.5234 30.1883 19.6641C30.1883 17.4766 31.1385 15.5898 33.0389 14.0039ZM60.8688 25.4678C59.0641 27.1768 57.5534 28.4414 56.3366 29.2617C55.1198 30.0684 54.0261 30.4717 53.0554 30.4717C51.9753 30.4717 51.1413 30.041 50.5534 29.1797C49.9792 28.3184 49.6921 27.1494 49.6921 25.6729C48.1882 27.3271 46.8415 28.5508 45.652 29.3438C44.4626 30.123 43.3005 30.5127 42.1657 30.5127C41.1266 30.5127 40.2927 30.082 39.6637 29.2207C39.0348 28.3594 38.7204 27.1904 38.7204 25.7139C38.7204 22.8701 39.6774 18.8643 41.5915 13.6963L47.0466 12.6094C44.8044 19.1582 43.6833 23.3623 43.6833 25.2217C43.6833 26.5342 44.1755 27.1904 45.1598 27.1904C45.8708 27.1904 46.7526 26.6162 47.8054 25.4678C48.8581 24.3057 49.5143 23.2939 49.7741 22.4326L52.4606 13.6963L58.0387 12.5684C56.7536 16.6836 55.8718 19.5752 55.3932 21.2432C54.9147 22.9111 54.6755 24.0801 54.6755 24.75C54.6755 26.0352 55.113 26.6777 55.988 26.6777C56.6989 26.6777 57.7516 26.0283 59.1462 24.7295L60.8688 23.1094V25.4678ZM73.605 25.4678C71.7456 27.1768 70.1118 28.4414 68.7036 29.2617C67.3091 30.0684 65.9761 30.4717 64.7046 30.4717C63.2417 30.4717 62.0591 29.9043 61.1568 28.7695C60.2681 27.6348 59.8237 26.1104 59.8237 24.1963C59.8237 21.3252 60.4458 17.8799 61.69 13.8604C62.9341 9.84082 64.4448 6.13574 66.2222 2.74512L71.4312 0.817383C71.5952 0.762695 71.7183 0.735352 71.8003 0.735352C72.1968 0.735352 72.5181 1.0293 72.7642 1.61719C73.0239 2.19141 73.1538 2.9707 73.1538 3.95508C73.1538 6.74414 72.5112 9.44434 71.2261 12.0557C69.9409 14.667 67.9312 17.4561 65.1968 20.4229C65.0874 21.8447 65.0327 22.8223 65.0327 23.3555C65.0327 24.5449 65.2515 25.4883 65.689 26.1855C66.1265 26.8828 66.7075 27.2314 67.4321 27.2314C68.1704 27.2314 68.9566 26.9648 69.7905 26.4316C70.6245 25.8984 71.896 24.791 73.605 23.1094V25.4678ZM65.7505 17.4492C67.4868 15.5215 68.895 13.3613 69.9751 10.9688C71.0552 8.57617 71.5952 6.51855 71.5952 4.7959C71.5952 4.29004 71.52 3.88672 71.3696 3.58594C71.2193 3.27148 71.0279 3.11426 70.7954 3.11426C70.2896 3.11426 69.5513 4.37207 68.5806 6.8877C67.6236 9.40332 66.6802 12.9238 65.7505 17.4492ZM102.973 25.4678C101.264 27.1357 99.8011 28.3867 98.5843 29.2207C97.3675 30.0547 96.1849 30.4717 95.0365 30.4717C94.1341 30.4717 93.4164 30.1641 92.8832 29.5488C92.3636 28.9199 92.1039 28.0791 92.1039 27.0264C92.1039 25.5498 92.473 23.6768 93.2113 21.4072C93.9496 19.1377 94.3187 17.7568 94.3187 17.2646C94.3187 16.8271 94.0931 16.6084 93.642 16.6084C93.5052 16.6084 93.3412 16.6562 93.1498 16.752C92.9447 16.8477 92.7123 16.9844 92.4525 17.1621C92.1927 17.3535 91.9125 17.5859 91.6117 17.8594C91.3109 18.1328 90.9964 18.4473 90.6683 18.8027C90.3129 19.1582 89.9574 19.5479 89.6019 19.9717C89.0004 20.6826 88.6449 21.2773 88.5355 21.7559L87.8587 24.6885L86.6283 29.5283L81.4193 30.4717L83.4086 22.0225C83.5589 21.4072 83.7367 20.5049 83.9418 19.3154C84.1468 18.126 84.2494 17.415 84.2494 17.1826C84.2494 16.7178 84.0921 16.4854 83.7777 16.4854C83.682 16.4854 83.5453 16.5332 83.3675 16.6289C83.1625 16.7246 82.93 16.8682 82.6703 17.0596C82.3695 17.2783 82.0482 17.5381 81.7064 17.8389C81.3373 18.167 80.9408 18.543 80.517 18.9668C80.0658 19.418 79.6009 19.917 79.1224 20.4639C78.4662 21.2021 78.056 22.0635 77.892 23.0479C77.6732 24.2236 77.5228 25.2764 77.4408 26.2061C77.3451 27.1357 77.2904 28.1748 77.2767 29.3232L72.724 30.4102C72.6146 28.8379 72.5599 27.5254 72.5599 26.4727C72.5599 23.9707 72.8197 21.7969 73.3392 19.9512C73.8587 18.0918 74.7064 15.9248 75.8822 13.4502L80.8451 12.4863C79.9564 14.7148 79.266 16.8682 78.7738 18.9463C82.4515 14.667 85.2679 12.5273 87.223 12.5273C87.9339 12.5273 88.5082 12.8213 88.9457 13.4092C89.3968 13.9834 89.6224 14.7422 89.6224 15.6855C89.6224 16.123 89.5541 16.9297 89.4173 18.1055C91.7279 15.7949 93.3822 14.291 94.3802 13.5938C95.392 12.8828 96.3216 12.5273 97.1693 12.5273C97.9212 12.5273 98.5365 12.8281 99.015 13.4297C99.4935 14.0312 99.7328 14.7969 99.7328 15.7266C99.7328 17.1895 99.3295 19.0693 98.5228 21.3662C97.7162 23.6631 97.3129 25.1807 97.3129 25.9189C97.3129 26.6846 97.5931 27.0674 98.1537 27.0674C98.5091 27.0674 99.0013 26.835 99.6302 26.3701C100.273 25.8916 101.387 24.8047 102.973 23.1094V25.4678ZM124.056 25.4678C121.868 27.5459 120.303 28.8994 119.36 29.5283C118.416 30.1572 117.514 30.4717 116.653 30.4717C114.492 30.4717 113.474 28.5645 113.597 24.75C112.23 26.7051 110.965 28.1475 109.803 29.0771C108.654 30.0068 107.465 30.4717 106.235 30.4717C105.031 30.4717 104.006 29.9111 103.158 28.79C102.324 27.6553 101.907 26.2676 101.907 24.627C101.907 22.5762 102.468 20.6211 103.589 18.7617C104.724 16.9023 106.173 15.3984 107.937 14.25C109.7 13.1016 111.259 12.5273 112.613 12.5273C114.321 12.5273 115.518 13.3135 116.201 14.8857L120.385 12.5684H121.533L119.729 18.5771C118.799 21.5986 118.334 23.6699 118.334 24.791C118.334 25.9668 118.751 26.5547 119.585 26.5547C120.118 26.5547 120.706 26.2744 121.349 25.7139C121.991 25.1396 122.894 24.2715 124.056 23.1094V25.4678ZM109.044 26.5957C110.411 26.5957 111.696 25.4336 112.9 23.1094C114.116 20.7715 114.725 18.6182 114.725 16.6494C114.725 15.8838 114.554 15.2891 114.212 14.8652C113.87 14.4277 113.412 14.209 112.838 14.209C111.471 14.209 110.172 15.3711 108.942 17.6953C107.725 20.0195 107.116 22.1592 107.116 24.1143C107.116 24.8525 107.294 25.4541 107.65 25.9189C108.019 26.3701 108.484 26.5957 109.044 26.5957ZM135.028 25.4678C133.306 27.1768 131.815 28.4414 130.558 29.2617C129.3 30.0684 128.104 30.4717 126.969 30.4717C125.793 30.4717 124.836 29.9795 124.098 28.9951C123.373 27.9971 123.011 26.6914 123.011 25.0781C123.011 23.6562 123.353 21.7764 124.036 19.4385L124.939 16.3418L123.359 16.4238L124.016 13.2041L125.964 13.1221L127.892 6.72363L133.388 5.5957L131.296 12.7324L134.147 12.5684L133.47 15.7266L130.291 15.9727L128.917 20.5664C128.452 22.166 128.22 23.4375 128.22 24.3809C128.22 25.0234 128.377 25.5498 128.691 25.96C129.02 26.3564 129.437 26.5547 129.942 26.5547C130.64 26.5547 131.33 26.3359 132.014 25.8984C132.697 25.4473 133.702 24.5176 135.028 23.1094V25.4678ZM149.528 25.4678C147.792 27.1768 146.233 28.4414 144.852 29.2617C143.472 30.0684 141.947 30.4717 140.279 30.4717C138.42 30.4717 136.916 29.877 135.767 28.6875C134.633 27.498 134.065 25.9326 134.065 23.9912C134.065 21.0928 135.07 18.4746 137.08 16.1367C139.09 13.7852 141.318 12.6094 143.766 12.6094C145.037 12.6094 146.056 12.9375 146.821 13.5938C147.587 14.25 147.97 15.1113 147.97 16.1777C147.97 19.0078 144.962 21.3047 138.946 23.0684C139.493 25.7344 140.922 27.0674 143.232 27.0674C144.135 27.0674 144.996 26.8281 145.816 26.3496C146.637 25.8574 147.874 24.7773 149.528 23.1094V25.4678ZM138.782 21.6738C142.282 20.6895 144.032 18.8711 144.032 16.2188C144.032 14.9062 143.554 14.25 142.597 14.25C141.694 14.25 140.833 14.9404 140.013 16.3213C139.192 17.6885 138.782 19.4727 138.782 21.6738ZM170.119 4.46777C170.119 5.00098 169.237 6.31348 167.473 8.40527H167.104C166.831 8.2959 166.66 7.89258 166.592 7.19531C166.441 5.78711 165.956 4.63867 165.135 3.75C164.315 2.84766 163.331 2.39648 162.182 2.39648C161.102 2.39648 160.173 2.79297 159.393 3.58594C158.614 4.36523 158.224 5.30176 158.224 6.39551C158.224 7.18848 158.47 8.04297 158.963 8.95898C159.455 9.86133 160.733 11.2969 162.798 13.2656C164.876 15.2344 166.209 16.8066 166.797 17.9824C167.384 19.1445 167.678 20.252 167.678 21.3047C167.678 23.7383 166.619 25.8848 164.5 27.7441C162.394 29.5898 159.926 30.5127 157.096 30.5127C154.759 30.5127 152.831 29.9727 151.313 28.8926C149.796 27.7988 149.037 26.9102 149.037 26.2266C149.037 25.8438 149.454 24.9551 150.288 23.5605C151.122 22.166 151.6 21.4688 151.723 21.4688C152.161 21.4688 152.468 21.5986 152.646 21.8584C152.838 22.1045 152.967 22.5693 153.036 23.2529C153.241 25.3857 153.754 26.8555 154.574 27.6621C155.408 28.4688 156.488 28.8721 157.814 28.8721C159.263 28.8721 160.528 28.373 161.608 27.375C162.688 26.3633 163.228 25.1943 163.228 23.8682C163.228 23.1846 163.016 22.46 162.592 21.6943C162.182 20.915 161 19.6025 159.045 17.7568C157.103 15.8975 155.832 14.3252 155.23 13.04C154.629 11.7549 154.328 10.5039 154.328 9.28711C154.328 7.16797 155.128 5.21973 156.727 3.44238C158.327 1.66504 160.453 0.776367 163.105 0.776367C165.115 0.776367 166.783 1.24121 168.109 2.1709C169.449 3.08691 170.119 3.85254 170.119 4.46777ZM183.327 25.4678C181.604 27.1768 180.114 28.4414 178.856 29.2617C177.598 30.0684 176.402 30.4717 175.267 30.4717C174.091 30.4717 173.134 29.9795 172.396 28.9951C171.671 27.9971 171.309 26.6914 171.309 25.0781C171.309 23.6562 171.651 21.7764 172.335 19.4385L173.237 16.3418L171.658 16.4238L172.314 13.2041L174.262 13.1221L176.19 6.72363L181.686 5.5957L179.594 12.7324L182.445 12.5684L181.768 15.7266L178.589 15.9727L177.215 20.5664C176.751 22.166 176.518 23.4375 176.518 24.3809C176.518 25.0234 176.675 25.5498 176.99 25.96C177.318 26.3564 177.735 26.5547 178.241 26.5547C178.938 26.5547 179.628 26.3359 180.312 25.8984C180.996 25.4473 182.001 24.5176 183.327 23.1094V25.4678ZM197.827 25.4678C194.395 28.8311 191.749 30.5127 189.89 30.5127C189.056 30.5127 188.352 30.1641 187.778 29.4668C187.204 28.7559 186.916 27.8809 186.916 26.8418C186.916 24.9141 187.949 22.3301 190.013 19.0898C189.001 19.6094 187.894 19.9717 186.691 20.1768C185.802 21.8174 184.408 23.5811 182.507 25.4678H182.036V23.6221C183.102 22.5146 184.066 21.3252 184.927 20.0537C183.751 19.5342 183.163 18.7617 183.163 17.7363C183.163 16.6836 183.519 15.5625 184.23 14.373C184.954 13.1699 185.946 12.5684 187.204 12.5684C188.27 12.5684 188.803 13.1152 188.803 14.209C188.803 15.0703 188.496 16.3008 187.88 17.9004C190.15 17.6543 192.132 15.918 193.828 12.6914L195.694 12.6094L193.787 17.8594C192.994 20.0742 192.481 21.585 192.248 22.3916C192.016 23.1846 191.9 23.8887 191.9 24.5039C191.9 25.0781 192.03 25.5361 192.289 25.8779C192.563 26.2197 192.925 26.3906 193.376 26.3906C193.869 26.3906 194.34 26.2266 194.791 25.8984C195.243 25.5566 196.254 24.627 197.827 23.1094V25.4678ZM206.666 4.59082C206.666 7.87207 205.456 9.5127 203.036 9.5127C201.861 9.5127 200.856 9.15723 200.022 8.44629C200.815 7.24316 201.43 5.88965 201.867 4.38574C202.947 5.05566 203.816 5.39062 204.472 5.39062C205.21 5.39062 205.942 5.12402 206.666 4.59082ZM207.076 25.4678C203.877 28.8311 201.485 30.5127 199.899 30.5127C199.024 30.5127 198.285 30.0684 197.684 29.1797C197.082 28.2773 196.781 27.1494 196.781 25.7959C196.781 22.8838 197.766 18.8506 199.735 13.6963L204.944 12.6094H205.19L203.139 19.0283C202.291 21.6807 201.867 23.5742 201.867 24.709C201.867 25.1602 201.963 25.5293 202.155 25.8164C202.36 26.0898 202.613 26.2266 202.913 26.2266C203.447 26.2266 203.98 26.0352 204.513 25.6523C205.06 25.2559 205.914 24.4082 207.076 23.1094V25.4678ZM226.375 25.4678C223.217 28.8037 220.51 30.4717 218.254 30.4717C217.338 30.4717 216.6 30.1504 216.039 29.5078C215.479 28.8652 215.198 28.0039 215.198 26.9238C215.198 25.4609 215.8 23.2256 217.003 20.2178C217.646 18.6045 217.967 17.5791 217.967 17.1416C217.967 16.7041 217.796 16.4854 217.454 16.4854C217.263 16.4854 217.01 16.5811 216.695 16.7725C216.408 16.9639 216.073 17.2305 215.691 17.5723C215.349 17.8867 214.966 18.2695 214.542 18.7207C214.173 19.1035 213.776 19.541 213.353 20.0332L212.204 21.3662C211.698 21.9814 211.384 22.6309 211.261 23.3145C211.056 24.4766 210.919 25.543 210.851 26.5137C210.81 27.2383 210.789 28.2158 210.789 29.4463L206.257 30.5127C206.107 28.667 206.031 27.293 206.031 26.3906C206.031 24.1895 206.284 22.1045 206.79 20.1357C207.31 18.167 208.137 15.9521 209.272 13.4912L214.275 12.5273C213.223 15.3574 212.532 17.5859 212.204 19.2129C214.446 16.7109 216.224 14.9814 217.536 14.0244C218.862 13.0537 220.038 12.5684 221.064 12.5684C221.761 12.5684 222.342 12.835 222.807 13.3682C223.272 13.8877 223.504 14.5439 223.504 15.3369C223.504 16.6494 222.916 18.8096 221.74 21.8174C220.934 23.8818 220.53 25.2217 220.53 25.8369C220.53 26.6572 220.865 27.0674 221.535 27.0674C222.533 27.0674 224.147 25.748 226.375 23.1094V25.4678ZM245.674 25.4678C243.937 27.2861 241.859 28.626 239.439 29.4873C238.305 33.0283 236.862 35.7559 235.112 37.6699C233.376 39.584 231.53 40.541 229.575 40.541C228.509 40.541 227.647 40.2061 226.991 39.5361C226.335 38.8662 226.007 37.9844 226.007 36.8906C226.007 35.4277 226.656 34.1152 227.955 32.9531C229.268 31.791 231.489 30.6699 234.62 29.5898L235.502 25.5498C234.189 27.0264 233.055 28.1133 232.098 28.8105C231.141 29.4941 230.177 29.8359 229.206 29.8359C228.071 29.8359 227.142 29.3027 226.417 28.2363C225.692 27.1699 225.33 25.7822 225.33 24.0732C225.33 21.2842 226.39 18.6729 228.509 16.2393C230.642 13.792 232.904 12.5684 235.297 12.5684C236.623 12.5684 237.799 13.1289 238.824 14.25C239.439 14.0312 240.239 13.7031 241.224 13.2656L242.68 12.6094H243.151C242.618 14.2227 242.208 15.7949 241.921 17.3262L239.993 27.6006C241.839 26.9033 243.732 25.4062 245.674 23.1094V25.4678ZM232.467 26.1445C233.437 26.1445 234.299 25.5703 235.051 24.4219C235.803 23.2734 236.384 21.8174 236.794 20.0537C237.218 18.29 237.43 17.0664 237.43 16.3828C237.43 15.7402 237.266 15.2139 236.937 14.8037C236.623 14.3799 236.226 14.168 235.748 14.168C234.299 14.168 233.034 15.1455 231.954 17.1006C230.874 19.0557 230.334 21.0449 230.334 23.0684C230.334 24.0117 230.525 24.7637 230.908 25.3242C231.305 25.8711 231.824 26.1445 232.467 26.1445ZM234.189 31.3945C229.773 32.9805 227.565 34.8125 227.565 36.8906C227.565 37.5059 227.75 38.0049 228.119 38.3877C228.488 38.7842 228.96 38.9824 229.534 38.9824C230.518 38.9824 231.373 38.3604 232.098 37.1162C232.822 35.8721 233.519 33.9648 234.189 31.3945Z" fill="#FF90E8"/>
</svg>
