<svg width="176" height="29" fill="none" xmlns="http://www.w3.org/2000/svg"><path d="M15.63 2.763c0 .38-.63 1.318-1.89 2.812h-.263c-.196-.078-.318-.366-.367-.864-.107-1.006-.454-1.826-1.04-2.461-.586-.645-1.289-.967-2.11-.967-.77 0-1.435.283-1.991.85a2.736 2.736 0 0 0-.835 2.007c0 .566.176 1.176.527 1.83.352.645 1.265 1.67 2.74 3.077 1.484 1.406 2.436 2.53 2.856 3.369.42.83.63 1.621.63 2.373 0 1.738-.757 3.272-2.27 4.6-1.505 1.318-3.267 1.977-5.289 1.977-1.67 0-3.047-.386-4.13-1.157C1.112 19.428.57 18.793.57 18.305c0-.274.298-.909.894-1.905.596-.996.937-1.494 1.025-1.494.313 0 .532.093.66.279.136.175.229.507.278.996.146 1.523.512 2.573 1.098 3.15.596.575 1.368.863 2.315.863 1.035 0 1.938-.356 2.71-1.069.771-.723 1.157-1.558 1.157-2.505 0-.488-.151-1.006-.454-1.553-.293-.556-1.138-1.494-2.534-2.812-1.387-1.328-2.295-2.451-2.725-3.37-.43-.917-.644-1.81-.644-2.68 0-1.514.57-2.905 1.713-4.175C7.207.76 8.726.126 10.62.126c1.436 0 2.627.332 3.574.996.957.654 1.436 1.201 1.436 1.64zm12.803 15c-.498.44-.981.752-1.45.937-.469.176-.84.264-1.113.264-.703 0-1.402-.274-2.095-.82-1.406 2.129-3.018 3.193-4.834 3.193-1.133 0-2.05-.425-2.754-1.274-.703-.85-1.055-1.978-1.055-3.384 0-2.227.791-4.136 2.374-5.728 1.581-1.601 3.471-2.402 5.668-2.402.83 0 1.436.093 1.817.278.39.176.63.386.718.63.088.244.131.552.131.923 0 1.826-.498 4.067-1.494 6.723.498.46 1.02.689 1.568.689.654 0 1.494-.571 2.52-1.714v1.685zM23.6 9.574c-.146-.058-.356-.088-.63-.088-1.27 0-2.265.664-2.988 1.992-.713 1.329-1.07 2.881-1.07 4.659 0 .986.157 1.753.47 2.3.312.546.747.82 1.303.82.694 0 1.445-.64 2.256-1.92-.918-1.151-1.377-2.392-1.377-3.72 0-1.562.679-2.91 2.036-4.043zm19.879 8.189c-1.29 1.22-2.368 2.124-3.238 2.71-.869.576-1.65.864-2.343.864-.772 0-1.367-.308-1.787-.923-.41-.615-.616-1.45-.616-2.505-1.074 1.182-2.036 2.056-2.885 2.622-.85.557-1.68.835-2.49.835-.743 0-1.338-.307-1.788-.923-.449-.615-.674-1.45-.674-2.505 0-2.03.684-4.892 2.051-8.584l3.897-.776c-1.602 4.678-2.403 7.68-2.403 9.009 0 .937.352 1.406 1.055 1.406.508 0 1.138-.41 1.89-1.23.752-.83 1.22-1.553 1.406-2.168l1.919-6.24 3.984-.806c-.918 2.94-1.548 5.005-1.89 6.196-.341 1.192-.512 2.027-.512 2.505 0 .918.312 1.377.937 1.377.508 0 1.26-.464 2.256-1.392l1.23-1.157v1.685zm9.097 0c-1.328 1.22-2.495 2.124-3.501 2.71-.996.576-1.948.864-2.856.864-1.045 0-1.89-.405-2.535-1.216-.634-.81-.952-1.9-.952-3.266 0-2.051.445-4.512 1.333-7.383.889-2.871 1.968-5.518 3.238-7.94l3.72-1.377a.93.93 0 0 1 .264-.058c.283 0 .513.21.688.63.186.41.279.966.279 1.67 0 1.992-.46 3.92-1.377 5.786-.918 1.865-2.354 3.857-4.307 5.976-.078 1.016-.117 1.714-.117 2.095 0 .85.156 1.523.469 2.021.312.498.727.748 1.245.748.527 0 1.089-.191 1.684-.572.596-.38 1.504-1.172 2.725-2.373v1.685zm-5.61-5.728a17.838 17.838 0 0 0 3.017-4.629c.772-1.709 1.157-3.178 1.157-4.409 0-.361-.053-.65-.16-.864-.108-.225-.245-.337-.41-.337-.362 0-.89.898-1.583 2.695-.683 1.797-1.357 4.312-2.021 7.544zm26.587 5.728c-1.22 1.191-2.266 2.085-3.135 2.68-.869.596-1.713.894-2.534.894-.644 0-1.157-.22-1.538-.66-.371-.448-.556-1.05-.556-1.801 0-1.055.263-2.393.79-4.014.528-1.62.792-2.607.792-2.959 0-.312-.162-.468-.484-.468a.818.818 0 0 0-.352.102 3.609 3.609 0 0 0-.498.293 7.682 7.682 0 0 0-.6.498c-.215.195-.44.42-.674.674-.254.254-.508.532-.762.835-.43.508-.683.933-.761 1.274l-.484 2.095-.879 3.457-3.72.674 1.42-6.035c.108-.44.235-1.084.381-1.934.147-.85.22-1.357.22-1.523 0-.332-.112-.498-.337-.498-.068 0-.166.034-.293.102-.146.069-.312.171-.498.308a9.63 9.63 0 0 0-.688.556c-.264.235-.547.503-.85.806-.322.322-.654.679-.996 1.07a3.619 3.619 0 0 0-.879 1.845c-.156.84-.264 1.592-.322 2.256a24.783 24.783 0 0 0-.117 2.227l-3.252.776a41.801 41.801 0 0 1-.117-2.813c0-1.787.185-3.34.556-4.658.371-1.328.977-2.876 1.817-4.643l3.544-.689a33.056 33.056 0 0 0-1.479 4.614c2.627-3.056 4.639-4.584 6.035-4.584.508 0 .918.21 1.23.63.323.41.484.952.484 1.625 0 .313-.049.89-.147 1.729 1.65-1.65 2.833-2.725 3.546-3.223.722-.508 1.386-.761 1.992-.761.537 0 .976.214 1.318.644.342.43.513.977.513 1.64 0 1.046-.288 2.388-.865 4.029-.576 1.64-.864 2.725-.864 3.252 0 .547.2.82.6.82.255 0 .606-.166 1.056-.498.458-.342 1.254-1.118 2.387-2.329v1.685zm15.06 0c-1.563 1.484-2.681 2.45-3.355 2.9-.674.45-1.319.674-1.934.674-1.543 0-2.27-1.362-2.182-4.087-.977 1.396-1.88 2.427-2.71 3.09-.82.665-1.67.997-2.55.997-.859 0-1.591-.4-2.196-1.201-.596-.81-.894-1.802-.894-2.974 0-1.465.4-2.861 1.201-4.19a10.003 10.003 0 0 1 3.106-3.222c1.26-.82 2.373-1.23 3.34-1.23 1.22 0 2.075.561 2.563 1.684l2.988-1.655h.82l-1.288 4.292c-.665 2.158-.997 3.638-.997 4.438 0 .84.298 1.26.894 1.26.38 0 .8-.2 1.26-.6.459-.41 1.103-1.03 1.933-1.86v1.684zm-10.723.805c.976 0 1.894-.83 2.754-2.49.869-1.67 1.303-3.208 1.303-4.614 0-.547-.122-.972-.366-1.274a1.182 1.182 0 0 0-.981-.47c-.977 0-1.905.83-2.784 2.49-.869 1.661-1.303 3.19-1.303 4.586 0 .527.127.957.38 1.289.264.322.596.483.997.483zm18.56-.805c-1.23 1.22-2.295 2.124-3.194 2.71-.898.576-1.752.864-2.563.864-.84 0-1.523-.352-2.05-1.055-.518-.713-.777-1.645-.777-2.798 0-1.015.244-2.358.732-4.028l.645-2.212-1.128.059.469-2.3 1.391-.059 1.377-4.57 3.926-.806-1.494 5.098 2.036-.117-.484 2.256-2.27.175-.981 3.282c-.332 1.142-.499 2.05-.499 2.724 0 .46.113.835.338 1.128.234.284.532.425.893.425.498 0 .991-.156 1.48-.469.488-.322 1.206-.986 2.153-1.992v1.685zm10.357 0c-1.24 1.22-2.354 2.124-3.34 2.71-.986.576-2.075.864-3.267.864-1.328 0-2.402-.425-3.222-1.274-.81-.85-1.216-1.968-1.216-3.355 0-2.07.718-3.94 2.153-5.61 1.436-1.68 3.028-2.52 4.776-2.52.908 0 1.635.235 2.182.703.547.469.821 1.084.821 1.846 0 2.021-2.149 3.662-6.446 4.922.39 1.904 1.411 2.856 3.062 2.856.644 0 1.26-.17 1.845-.512.586-.352 1.47-1.123 2.652-2.315v1.685zm-7.676-2.71c2.5-.703 3.75-2.002 3.75-3.897 0-.937-.342-1.406-1.025-1.406-.645 0-1.26.493-1.846 1.48-.586.976-.879 2.25-.879 3.823zm22.383-12.29c0 .38-.629 1.318-1.889 2.812h-.264c-.195-.078-.317-.366-.366-.864-.107-1.006-.454-1.826-1.04-2.461-.586-.645-1.289-.967-2.109-.967-.772 0-1.436.283-1.993.85a2.739 2.739 0 0 0-.835 2.007c0 .566.176 1.176.528 1.83.351.645 1.264 1.67 2.739 3.077 1.484 1.406 2.437 2.53 2.856 3.369.42.83.63 1.621.63 2.373 0 1.738-.757 3.272-2.27 4.6-1.504 1.318-3.267 1.977-5.288 1.977-1.67 0-3.047-.386-4.131-1.157-1.084-.781-1.626-1.416-1.626-1.904 0-.274.298-.909.893-1.905.596-.996.938-1.494 1.026-1.494.312 0 .532.093.659.279.137.175.229.507.278.996.147 1.523.513 2.573 1.099 3.15.596.575 1.367.863 2.314.863 1.036 0 1.939-.356 2.71-1.069.772-.723 1.158-1.558 1.158-2.505 0-.488-.152-1.006-.455-1.553-.292-.556-1.137-1.494-2.534-2.812-1.386-1.328-2.295-2.451-2.724-3.37-.43-.917-.645-1.81-.645-2.68 0-1.514.571-2.905 1.714-4.175s2.661-1.904 4.556-1.904c1.435 0 2.627.332 3.574.996.957.654 1.435 1.201 1.435 1.64zm9.435 15c-1.231 1.22-2.295 2.124-3.194 2.71-.898.576-1.753.864-2.563.864-.84 0-1.524-.352-2.051-1.055-.518-.713-.776-1.645-.776-2.798 0-1.015.244-2.358.732-4.028l.645-2.212-1.128.059.468-2.3 1.392-.059 1.377-4.57 3.926-.806-1.494 5.098 2.036-.117-.484 2.256-2.27.175-.982 3.282c-.332 1.142-.498 2.05-.498 2.724 0 .46.113.835.337 1.128.235.284.533.425.894.425.498 0 .991-.156 1.479-.469.489-.322 1.206-.986 2.154-1.992v1.685zm10.357 0c-2.451 2.402-4.341 3.603-5.669 3.603-.596 0-1.099-.249-1.509-.747-.41-.508-.615-1.133-.615-1.875 0-1.377.737-3.223 2.212-5.537a8.17 8.17 0 0 1-2.373.776c-.635 1.172-1.631 2.432-2.989 3.78h-.337v-1.319a19.122 19.122 0 0 0 2.066-2.548c-.84-.372-1.26-.923-1.26-1.656 0-.752.254-1.553.762-2.402.517-.86 1.225-1.29 2.124-1.29.762 0 1.142.391 1.142 1.173 0 .615-.219 1.494-.659 2.636 1.621-.175 3.037-1.416 4.248-3.72l1.333-.059-1.362 3.75c-.566 1.582-.933 2.661-1.099 3.237-.166.567-.249 1.07-.249 1.51 0 .41.093.736.279.98a.944.944 0 0 0 .776.367c.352 0 .688-.117 1.011-.352.322-.244 1.045-.908 2.168-1.992v1.685zm6.314-14.912c0 2.343-.865 3.515-2.593 3.515-.84 0-1.558-.254-2.153-.762a10.623 10.623 0 0 0 1.318-2.9c.771.479 1.392.718 1.86.718.528 0 1.05-.19 1.568-.571zm.293 14.912c-2.285 2.402-3.994 3.603-5.127 3.603-.625 0-1.153-.317-1.582-.952-.43-.645-.645-1.45-.645-2.417 0-2.08.703-4.96 2.11-8.643l3.72-.776h.176l-1.465 4.585c-.605 1.895-.908 3.247-.908 4.058 0 .322.068.586.205.79.147.196.327.294.542.294.381 0 .762-.137 1.143-.41.39-.284 1.001-.89 1.831-1.817v1.685zm13.784 0c-2.255 2.382-4.189 3.574-5.8 3.574-.655 0-1.182-.23-1.582-.689-.401-.459-.601-1.074-.601-1.845 0-1.045.43-2.642 1.289-4.79.459-1.153.689-1.885.689-2.198 0-.312-.122-.468-.367-.468-.136 0-.317.068-.542.205a6.672 6.672 0 0 0-.717.571c-.244.225-.518.498-.821.82-.263.274-.547.586-.849.938l-.821.952c-.361.44-.586.903-.673 1.392-.147.83-.245 1.591-.293 2.285-.03.517-.044 1.216-.044 2.095l-3.238.761c-.107-1.318-.161-2.3-.161-2.944 0-1.572.181-3.062.542-4.468.371-1.406.962-2.988 1.773-4.746l3.574-.688c-.752 2.021-1.245 3.613-1.48 4.775 1.602-1.787 2.872-3.022 3.809-3.706.947-.693 1.787-1.04 2.52-1.04.498 0 .913.19 1.245.571.332.371.498.84.498 1.406 0 .938-.42 2.48-1.26 4.63-.576 1.474-.864 2.43-.864 2.87 0 .586.239.88.717.88.713 0 1.866-.943 3.457-2.828v1.685zm13.785 0a11.303 11.303 0 0 1-4.453 2.87c-.81 2.53-1.841 4.478-3.091 5.846-1.24 1.367-2.558 2.05-3.955 2.05-.761 0-1.377-.239-1.845-.718-.469-.478-.704-1.108-.704-1.89 0-1.044.464-1.982 1.392-2.812.937-.83 2.524-1.63 4.761-2.402l.63-2.886c-.938 1.055-1.748 1.831-2.432 2.33-.684.488-1.372.732-2.065.732-.811 0-1.475-.381-1.993-1.143-.517-.761-.776-1.753-.776-2.973 0-1.993.757-3.858 2.271-5.596 1.523-1.748 3.139-2.622 4.848-2.622.947 0 1.787.4 2.52 1.201.439-.156 1.01-.39 1.714-.703l1.04-.469h.336a26.157 26.157 0 0 0-.878 3.37l-1.377 7.338c1.318-.498 2.671-1.567 4.057-3.208v1.685zm-9.433.483c.693 0 1.308-.41 1.845-1.23.537-.82.953-1.86 1.245-3.12.303-1.26.455-2.134.455-2.623 0-.458-.118-.835-.352-1.127-.225-.303-.508-.455-.85-.455-1.035 0-1.938.699-2.71 2.095-.771 1.397-1.157 2.818-1.157 4.263 0 .674.137 1.21.41 1.611.284.39.655.586 1.114.586zm1.23 3.75c-3.154 1.133-4.731 2.442-4.731 3.926 0 .44.132.796.395 1.07.264.282.601.424 1.011.424.703 0 1.313-.444 1.831-1.333s1.016-2.251 1.494-4.087z" fill="#FF90E8"/></svg>