<svg width="34" height="18" viewBox="0 0 34 18" fill="none" xmlns="http://www.w3.org/2000/svg">
<path fill-rule="evenodd" clip-rule="evenodd" d="M32.1907 2.69974C25.8094 14.5657 13.062 19.3899 1.22239 12.7096C0.828252 12.4872 0.328436 12.6263 0.105992 13.0155C-0.116451 13.4118 0.0225911 13.9123 0.416733 14.1347C13.1071 21.3016 26.7937 16.1923 33.6338 3.47829C33.8479 3.08207 33.6985 2.5815 33.3001 2.36601C32.9018 2.15747 32.4048 2.30352 32.1907 2.69974Z" fill="#FF90E8"/>
<path d="M11.1856 7.62055C12.5038 7.62055 13.5724 6.55198 13.5724 5.2338C13.5724 3.91562 12.5038 2.84705 11.1856 2.84705C9.8674 2.84705 8.79883 3.91562 8.79883 5.2338C8.79883 6.55198 9.8674 7.62055 11.1856 7.62055Z" fill="#FF90E8"/>
<path d="M21.0667 5.08164C22.3591 5.08164 23.4068 4.03395 23.4068 2.74153C23.4068 1.44912 22.3591 0.401428 21.0667 0.401428C19.7743 0.401428 18.7266 1.44912 18.7266 2.74153C18.7266 4.03395 19.7743 5.08164 21.0667 5.08164Z" fill="#FF90E8"/>
</svg>
