<svg width="19" height="19" viewBox="0 0 19 19" fill="none" xmlns="http://www.w3.org/2000/svg">
<path fill-rule="evenodd" clip-rule="evenodd" d="M0 7.80037C0 9.9425 0.861471 11.8986 2.28181 13.2954C3.70215 14.7157 5.63473 15.5772 7.80023 15.5772C9.43011 15.5772 10.9436 15.0649 12.2011 14.2035L16.5785 18.5809C17.1372 19.1397 18.0222 19.1397 18.5809 18.5809C19.1397 18.0222 19.1397 17.1372 18.5809 16.5785L14.2035 12.2011C15.065 10.9437 15.5772 9.43021 15.5772 7.80023C15.5772 5.6348 14.7157 3.70204 13.2954 2.28181C11.8984 0.861472 9.94246 0 7.80037 0C5.63493 0 3.70218 0.861472 2.28194 2.28181C0.861607 3.70215 0.000135638 5.63473 0.000135638 7.80023L0 7.80037ZM8.14956 3.88879C7.75368 3.88879 7.4278 3.58608 7.4278 3.1902C7.4278 2.79433 7.75383 2.46845 8.14956 2.46845C9.52325 2.46845 10.7574 3.02721 11.6421 3.9353C12.5503 4.82008 13.109 6.07743 13.109 7.42787C13.109 7.82375 12.783 8.14963 12.3872 8.14963C11.9914 8.14963 11.6886 7.8236 11.6886 7.42787C11.6886 6.44992 11.2928 5.56514 10.6408 4.93652C10.0121 4.28459 9.12734 3.88872 8.14949 3.88872L8.14956 3.88879Z" fill="black"/>
</svg>
