<svg width="21" height="13" viewBox="0 0 21 13" fill="none" xmlns="http://www.w3.org/2000/svg">
<path d="M1.18822 1.18761C2.68497 -0.309144 5.06 -0.390585 6.65372 0.940253C8.24843 -0.390384 10.6228 -0.309125 12.1197 1.18761C13.6127 2.68062 13.6991 5.04568 12.3802 6.64035L6.65384 12.394L0.927955 6.64035C-0.390072 5.04563 -0.304716 2.68058 1.18829 1.18761H1.18822Z" fill="black"/>
<path d="M12.7252 0.584058C12.5124 0.371201 12.2833 0.181999 12.0415 0.0142921C12.8654 0.073686 13.675 0.380611 14.3461 0.940412C15.9408 -0.390225 18.3151 -0.308967 19.812 1.18777C21.3049 2.68078 21.3909 5.04584 20.072 6.64051L14.3461 12.3942L11.1016 9.13376L13.0395 7.18496C14.6625 5.2232 14.5272 2.38502 12.7253 0.583675L12.7252 0.584058Z" fill="black"/>
</svg>
