<svg width="17" height="17" viewBox="0 0 17 17" fill="none" xmlns="http://www.w3.org/2000/svg">
<path fill-rule="evenodd" clip-rule="evenodd" d="M8.47146 0C13.1905 0 17 3.80921 17 8.47146C17 13.1905 13.1908 17 8.47146 17C3.80921 17 0 13.1908 0 8.47146C0 3.80921 3.80921 0 8.47146 0ZM4.32104 9.21066H12.679C12.9632 9.21066 13.2476 9.4949 13.2476 9.77925C13.1908 12.3946 11.087 14.4983 8.47177 14.4983C5.91324 14.4983 3.75275 12.3946 3.75275 9.77925C3.75275 9.49501 4.03699 9.21066 4.32134 9.21066H4.32104ZM5.45812 3.86629C6.25418 3.86629 6.87957 4.4917 6.87957 5.28773C6.87957 6.02686 6.25415 6.65225 5.45812 6.65225C4.6621 6.65225 4.03668 6.02683 4.03668 5.28773C4.03668 4.49167 4.6621 3.86629 5.45812 3.86629ZM11.5417 3.86629C12.3377 3.86629 12.9631 4.4917 12.9631 5.28773C12.9631 6.02686 12.3377 6.65225 11.5417 6.65225C10.7456 6.65225 10.1203 6.02683 10.1203 5.28773C10.1203 4.49167 10.7457 3.86629 11.5417 3.86629Z" fill="black"/>
</svg>
