<svg width="18" height="16" viewBox="0 0 18 16" fill="none" xmlns="http://www.w3.org/2000/svg">
<path d="M15.4005 8.24048H14.0078C14.1498 8.62977 14.2267 9.04733 14.2267 9.48513V14.7456C14.2267 14.9281 14.1943 15.1024 14.1375 15.2646H16.4404C17.2998 15.2646 17.9992 14.5652 17.9992 13.7058L17.9994 10.8394C17.9994 9.40607 16.8336 8.24048 15.4005 8.24048H15.4005Z" fill="#FF90E8"/>
<path d="M3.77268 9.485C3.77268 9.04706 3.84975 8.6295 3.99158 8.24036H2.59887C1.16559 8.24036 0 9.40594 0 10.8392V13.7076C0 14.5671 0.699375 15.2664 1.55882 15.2664H3.85963C3.80293 15.1042 3.7704 14.9299 3.7704 14.7475L3.77069 9.48479L3.77268 9.485Z" fill="#FF90E8"/>
<path d="M10.5922 6.88822H7.40942C5.97614 6.88822 4.81055 8.05381 4.81055 9.48709V14.7476C4.81055 15.0355 5.04372 15.2666 5.3295 15.2666H12.6679C12.9558 15.2666 13.1868 15.0334 13.1868 14.7476L13.187 9.48492C13.1889 8.05377 12.0233 6.88818 10.5922 6.88818L10.5922 6.88822Z" fill="#FF90E8"/>
<path d="M9.00282 0C7.27965 0 5.87891 1.40074 5.87891 3.12391C5.87891 4.29163 6.52358 5.31326 7.47635 5.8485C7.92841 6.1019 8.44936 6.24782 9.00282 6.24782C9.55627 6.24782 10.0772 6.10189 10.5293 5.8485C11.482 5.31329 12.1267 4.29163 12.1267 3.12391C12.1267 1.40074 10.726 0 9.00282 0Z" fill="#FF90E8"/>
<path d="M3.51499 2.91068C2.22567 2.91068 1.17773 3.95877 1.17773 5.24794C1.17773 6.53726 2.22582 7.5852 3.51499 7.5852C3.84135 7.5852 4.15359 7.51831 4.4354 7.39671C4.92395 7.18587 5.32739 6.81284 5.57666 6.34663C5.75101 6.01829 5.85028 5.64526 5.85028 5.24989C5.85028 3.95873 4.8022 2.91064 3.51498 2.91064L3.51499 2.91068Z" fill="#FF90E8"/>
<path d="M14.4857 2.91077C13.1964 2.91077 12.1484 3.95885 12.1484 5.24802C12.1484 5.64539 12.2477 6.01839 12.4221 6.34476C12.6714 6.81097 13.0748 7.18401 13.5633 7.39484C13.8451 7.51645 14.1572 7.58333 14.4837 7.58333C15.773 7.58333 16.821 6.53524 16.821 5.24607C16.821 3.9569 15.775 2.91077 14.4857 2.91077H14.4857Z" fill="#FF90E8"/>
</svg>
