<svg width="18" height="17" viewBox="0 0 18 17" fill="none" xmlns="http://www.w3.org/2000/svg">
<path d="M9.13667 0.701782C4.63462 0.701782 0.98762 4.34879 0.98762 8.85083C0.98762 10.875 1.72051 12.7247 2.94196 14.1381L0.90034 16.0053C0.516445 16.3543 0.760726 17 1.28423 17H9.13664C13.6387 17 17.2857 13.353 17.2857 8.85095C17.2857 4.34891 13.6387 0.701782 9.13667 0.701782ZM10.5151 10.177C10.0092 10.5783 9.60772 11.0495 9.36342 11.3635C9.24121 11.5206 8.99691 11.5206 8.87483 11.3635C8.63054 11.0495 8.22922 10.5783 7.72311 10.177C6.92036 9.54882 5.68149 8.90321 6.11773 7.38499C6.4667 6.23327 8.01973 5.77961 9.10171 6.80914C10.1836 5.76209 11.7366 6.21588 12.0857 7.38499C12.5567 8.88579 11.3179 9.54879 10.5151 10.177Z" fill="#FF90E8"/>
<path fill-rule="evenodd" clip-rule="evenodd" d="M9.49692 12.8209C9.86855 12.3432 10.4792 11.6264 11.2489 11.0159C11.3959 10.9009 11.5525 10.7851 11.7131 10.6663C12.8861 9.79897 14.2683 8.77689 13.638 6.76875C13.107 4.99033 10.7445 4.30003 9.09881 5.89279C7.45292 4.32667 5.09047 5.01678 4.55963 6.76875C3.9796 8.78739 5.34632 9.79192 6.5152 10.651C6.68361 10.7748 6.84792 10.8956 7.00171 11.0159C7.77159 11.6264 8.38207 12.3432 8.75368 12.8209C8.9394 13.0597 9.31102 13.0597 9.49692 12.8209Z" fill="white"/>
</svg>
