<svg width="22" height="18" viewBox="0 0 22 18" fill="none" xmlns="http://www.w3.org/2000/svg">
<path d="M18.995 3.09522C19.8914 2.5593 20.5622 1.71545 20.882 0.721215C20.0397 1.22102 19.118 1.57309 18.157 1.76222C16.8246 0.352743 14.7135 0.00974119 13.0034 0.924871C11.2933 1.84 10.4075 3.78671 10.841 5.67722C7.39062 5.50399 4.17598 3.87413 1.99702 1.19322C0.859855 3.15464 1.44097 5.662 3.32502 6.92321C2.64373 6.90131 1.97754 6.71685 1.38202 6.38522C1.38202 6.40322 1.38202 6.42122 1.38202 6.43922C1.38241 8.48237 2.82239 10.2423 4.82502 10.6472C4.19308 10.8191 3.53022 10.8445 2.88702 10.7212C3.45022 12.4685 5.06057 13.6655 6.89602 13.7012C5.37585 14.8943 3.49849 15.5414 1.56602 15.5382C1.22349 15.5387 0.881226 15.519 0.541016 15.4792C2.50341 16.7402 4.78738 17.4096 7.12002 17.4072C10.3653 17.4295 13.484 16.1501 15.7787 13.8552C18.0734 11.5603 19.3526 8.44146 19.33 5.19622C19.33 5.01022 19.3257 4.82522 19.317 4.64122C20.1575 4.03382 20.8828 3.28136 21.459 2.41922C20.676 2.76628 19.8455 2.99414 18.995 3.09522Z" fill="black"/>
</svg>
