<svg width="21" height="21" viewBox="0 0 21 21" fill="none" xmlns="http://www.w3.org/2000/svg">
<path d="M0.00195312 10.4093C0.00311667 15.3287 3.58036 19.5173 8.43895 20.2883V13.2993H5.90195V10.4093H8.44195V8.20927C8.32841 7.16681 8.68447 6.12786 9.41359 5.3742C10.1427 4.62054 11.1693 4.23028 12.215 4.30927C12.9655 4.32139 13.7141 4.38824 14.455 4.50927V6.96827H13.191C12.7558 6.91128 12.3183 7.05499 12.0017 7.35894C11.6851 7.66288 11.5237 8.09416 11.563 8.53127V10.4093H14.334L13.891 13.3003H11.563V20.2883C16.8174 19.4579 20.502 14.659 19.9475 9.36835C19.3929 4.07764 14.7932 0.1472 9.48078 0.424449C4.16831 0.701699 0.0027976 5.08958 0.00195312 10.4093Z" fill="black"/>
</svg>
