<svg width="20" height="21" viewBox="0 0 20 21" fill="none" xmlns="http://www.w3.org/2000/svg">
<path d="M10.0144 0.407227C4.49691 0.407227 0.0244141 4.87973 0.0244141 10.3964C0.0244141 14.6289 2.65608 18.2439 6.37275 19.6981C6.28525 18.9072 6.20691 17.6956 6.40691 16.8322C6.58941 16.0514 7.57858 11.8681 7.57858 11.8681C7.57858 11.8681 7.27941 11.2681 7.27941 10.3839C7.27941 8.99806 8.08525 7.95806 9.08609 7.95806C9.93942 7.95806 10.3511 8.59889 10.3511 9.36473C10.3511 10.2222 9.80692 11.5039 9.52442 12.6914C9.28692 13.6856 10.0244 14.4956 11.0036 14.4956C12.7769 14.4956 14.1436 12.6247 14.1436 9.92306C14.1436 7.53889 12.4244 5.86556 9.97025 5.86556C7.12858 5.86556 5.46275 8.00056 5.46275 10.1981C5.46275 11.0589 5.79108 11.9839 6.20358 12.4822C6.28608 12.5822 6.29691 12.6697 6.27441 12.7697C6.19941 13.0822 6.03025 13.7689 5.99608 13.9056C5.95191 14.0931 5.85275 14.1314 5.66191 14.0431C4.41608 13.4681 3.63441 11.6447 3.63441 10.1714C3.63441 7.02473 5.92441 4.12806 10.2344 4.12806C13.6994 4.12806 16.3944 6.60056 16.3944 9.89723C16.3944 13.3431 14.2219 16.1156 11.2003 16.1156C10.1886 16.1156 9.23859 15.5914 8.90192 14.9664L8.27775 17.3397C8.05358 18.2106 7.44108 19.2997 7.02941 19.9614C7.96525 20.2489 8.95109 20.4072 9.98775 20.4072C15.4936 20.4072 19.9753 15.9364 19.9753 10.4181C19.9753 4.89889 15.4936 0.428893 9.98775 0.428893L10.0144 0.407227Z" fill="black"/>
</svg>
