<svg width="14" height="15" viewBox="0 0 14 15" fill="none" xmlns="http://www.w3.org/2000/svg">
<path d="M6.33338 8.07357L6.33337 5.4069C6.33337 5.03871 6.63185 4.74024 7.00004 4.74023C7.36823 4.74023 7.66671 5.03871 7.66671 5.4069L7.66671 8.07357C7.66671 8.44176 7.36823 8.74024 7.00004 8.74024C6.63185 8.74024 6.33338 8.44176 6.33338 8.07357Z" fill="#FF7676"/>
<path d="M7.00004 11.4069C7.36823 11.4069 7.66671 11.1084 7.66671 10.7402C7.66671 10.372 7.36823 10.0736 7.00004 10.0736C6.63185 10.0736 6.33338 10.372 6.33338 10.7402C6.33338 11.1084 6.63185 11.4069 7.00004 11.4069Z" fill="#FF7676"/>
<path fill-rule="evenodd" clip-rule="evenodd" d="M7.00004 0.740234C7.50507 0.740234 7.96676 1.02557 8.19261 1.47728L13.5259 12.144C13.7326 12.5573 13.7105 13.0481 13.4676 13.4412C13.2246 13.8343 12.7955 14.0736 12.3334 14.0736H1.66671C1.20461 14.0736 0.77545 13.8343 0.532508 13.4412C0.289566 13.0481 0.26748 12.5573 0.474139 12.144L5.80747 1.47728C6.03333 1.02557 6.49501 0.740234 7.00004 0.740234ZM1.66671 12.7402H12.3334L7.00004 2.07357L1.66671 12.7402Z" fill="#FF7676"/>
</svg>
