<svg width="20" height="20" viewBox="0 0 20 20" fill="none" xmlns="http://www.w3.org/2000/svg">
<path d="M10.0134 0C4.49594 0 0.0234375 4.4725 0.0234375 9.98917C0.0234375 14.2217 2.6551 17.8367 6.37177 19.2908C6.28427 18.5 6.20594 17.2883 6.40594 16.425C6.58844 15.6442 7.5776 11.4608 7.5776 11.4608C7.5776 11.4608 7.27844 10.8608 7.27844 9.97667C7.27844 8.59083 8.08427 7.55083 9.08511 7.55083C9.93845 7.55083 10.3501 8.19167 10.3501 8.9575C10.3501 9.815 9.80594 11.0967 9.52345 12.2842C9.28594 13.2783 10.0234 14.0883 11.0026 14.0883C12.7759 14.0883 14.1426 12.2175 14.1426 9.51583C14.1426 7.13167 12.4234 5.45833 9.96928 5.45833C7.1276 5.45833 5.46177 7.59333 5.46177 9.79083C5.46177 10.6517 5.7901 11.5767 6.2026 12.075C6.2851 12.175 6.29594 12.2625 6.27344 12.3625C6.19844 12.675 6.02927 13.3617 5.9951 13.4983C5.95094 13.6858 5.85177 13.7242 5.66094 13.6358C4.4151 13.0608 3.63344 11.2375 3.63344 9.76417C3.63344 6.6175 5.92344 3.72083 10.2334 3.72083C13.6984 3.72083 16.3934 6.19333 16.3934 9.49C16.3934 12.9358 14.2209 15.7083 11.1993 15.7083C10.1876 15.7083 9.23761 15.1842 8.90094 14.5592L8.27677 16.9325C8.0526 17.8033 7.4401 18.8925 7.02844 19.5542C7.96427 19.8417 8.95011 20 9.98678 20C15.4926 20 19.9743 15.5292 19.9743 10.0108C19.9743 4.49167 15.4926 0.0216667 9.98678 0.0216667L10.0134 0Z" fill="#23A094"/>
</svg>
