<svg width="14" height="8" viewBox="0 0 14 8" fill="none" xmlns="http://www.w3.org/2000/svg">
<path d="M2.25962 0.740906C1.84657 0.327852 1.17687 0.327852 0.763817 0.740906C0.350763 1.15396 0.350763 1.82365 0.763817 2.23671L2.25962 0.740906ZM13.2148 2.21432C13.6279 1.80127 13.6279 1.13158 13.2148 0.718521C12.8018 0.305466 12.1321 0.305466 11.719 0.718521L13.2148 2.21432ZM7.22744 5.70873L2.25962 0.740906L0.763817 2.23671L5.73164 7.20453L7.22744 5.70873ZM11.719 0.718521L6.72884 5.70873L8.22464 7.20453L13.2148 2.21432L11.719 0.718521ZM5.73164 7.20453C6.42006 7.89296 7.53622 7.89295 8.22464 7.20453L6.72884 5.70873C6.86652 5.57104 7.08976 5.57104 7.22744 5.70873L5.73164 7.20453Z" fill="black"/>
</svg>
