<svg width="14" height="16" viewBox="0 0 14 16" fill="none" xmlns="http://www.w3.org/2000/svg">
<path fill-rule="evenodd" clip-rule="evenodd" d="M7.53336 0.133063C7.18645 0.0220524 6.81355 0.0220518 6.46664 0.133062L1.21664 1.81306C0.49183 2.045 0 2.71878 0 3.4798V6.99985C0 8.5659 0.31923 10.1823 1.3032 11.682C2.28631 13.1805 3.88836 14.4946 6.33508 15.5367C6.75909 15.7173 7.24091 15.7173 7.66493 15.5367C10.1116 14.4946 11.7137 13.1805 12.6968 11.682C13.6808 10.1823 14 8.5659 14 6.99985V3.4798C14 2.71878 13.5082 2.045 12.7834 1.81306L7.53336 0.133063ZM6.92381 1.5617C6.97336 1.54584 7.02664 1.54584 7.07619 1.5617L12.3262 3.2417C12.4297 3.27483 12.5 3.37109 12.5 3.4798V6.99985C12.5 8.35818 12.2253 9.66618 11.4426 10.8592C10.6591 12.0535 9.3216 13.2007 7.07713 14.1567C7.02866 14.1773 6.97134 14.1773 6.92287 14.1567C4.67838 13.2007 3.34094 12.0535 2.55737 10.8592C1.77465 9.66618 1.5 8.35818 1.5 6.99985V3.4798C1.5 3.37109 1.57026 3.27483 1.67381 3.2417L6.92381 1.5617ZM10.2803 6.28021C10.5732 5.98731 10.5732 5.51244 10.2803 5.21955C9.9874 4.92665 9.5126 4.92665 9.2197 5.21955L6.25 8.18922L5.28033 7.21955C4.98744 6.92665 4.51256 6.92665 4.21967 7.21955C3.92678 7.51244 3.92678 7.98731 4.21967 8.28021L5.71967 9.78021C6.01256 10.0731 6.48744 10.0731 6.78033 9.78021L10.2803 6.28021Z" fill="#323B4B"/>
</svg>
